<svg width="128" height="128" viewBox="0 0 128 128" xmlns="http://www.w3.org/2000/svg" fill="currentColor">
    <path
        d="M15 3.62172V12.1336L11.5 15L6.075 13.025V14.9825L3.00375 10.9713L11.955 11.6704V4.00624L15 3.62172ZM12.0163 4.04994L6.99375 1V3.00125L2.3825 4.35581L1 6.12984V10.1586L2.9775 11.0325V5.86767L12.0163 4.04994Z"
        transform="scale(6) translate(5)" />

    <path d="M2.78 2L2 2.41v12l.78.42 9-6V8l-9-6zM3 13.48V3.35l7.6 5.07L3 13.48z" transform="scale(4) translate(0 13)" />
    <path fill-rule="evenodd" clip-rule="evenodd" d="M6 14.683l8.78-5.853V8L6 2.147V3.35l7.6 5.07L6 13.48v1.203z" transform="scale(4) translate(0 13)" />
</svg>